<svg width="43" height="59" viewBox="0 0 43 59" fill="none" xmlns="http://www.w3.org/2000/svg">
<path fill-rule="evenodd" clip-rule="evenodd" d="M0.505859 21.7911C0.505859 33.3945 9.91228 42.8009 21.5157 42.8009C33.1191 42.8009 42.5255 33.3945 42.5255 21.7911C42.5255 10.1877 33.1191 0.78125 21.5157 0.78125C9.91228 0.78125 0.505859 10.1877 0.505859 21.7911ZM17.6639 31.4207L18.0214 26.0652L18.0211 26.0649L27.7634 17.2732C28.191 16.8937 27.6701 16.7087 27.1025 17.0529L15.0791 24.6383L9.88562 23.0173C8.76407 22.6739 8.75601 21.9032 10.1374 21.3492L30.3751 13.5456C31.2994 13.126 32.1916 13.7676 31.8387 15.1823L28.3922 31.4234C28.1516 32.5775 27.4542 32.8535 26.488 32.3204L21.238 28.4416L18.7144 30.8954C18.7064 30.9032 18.6985 30.9109 18.6907 30.9186C18.4084 31.1933 18.1749 31.4207 17.6639 31.4207Z" fill="#9255F5"/>
<path d="M8.80813 54.3113H9.83813C9.67813 55.098 9.29479 55.7413 8.68813 56.2413C8.08813 56.7413 7.35813 56.9913 6.49813 56.9913C5.49146 56.9913 4.66813 56.6547 4.02813 55.9813C3.39479 55.308 3.07813 54.4847 3.07813 53.5113C3.07813 52.5447 3.39813 51.7213 4.03813 51.0413C4.67813 50.3613 5.49813 50.0213 6.49813 50.0213C7.33813 50.0213 8.05813 50.268 8.65813 50.7613C9.26479 51.248 9.65146 51.878 9.81813 52.6513H8.79813C8.65146 52.158 8.37146 51.7547 7.95813 51.4413C7.55146 51.128 7.07146 50.9713 6.51813 50.9713C5.80479 50.9713 5.21479 51.2213 4.74813 51.7213C4.28813 52.2147 4.05813 52.8113 4.05813 53.5113C4.05813 54.218 4.28813 54.818 4.74813 55.3113C5.21479 55.798 5.80479 56.0413 6.51813 56.0413C7.09813 56.0413 7.59146 55.8813 7.99813 55.5613C8.41146 55.2347 8.68146 54.818 8.80813 54.3113ZM13.1637 51.7713C13.797 51.7713 14.307 51.978 14.6937 52.3913C15.0803 52.798 15.2737 53.3413 15.2737 54.0213V56.8613H14.3237V54.1913C14.3237 53.7513 14.2003 53.3913 13.9537 53.1113C13.7137 52.8313 13.3837 52.6913 12.9637 52.6913C12.5103 52.6913 12.1403 52.8513 11.8537 53.1713C11.5737 53.4847 11.4337 53.8913 11.4337 54.3913V56.8613H10.4837V49.6613H11.4337V52.5813H11.4737C11.887 52.0413 12.4503 51.7713 13.1637 51.7713ZM20.107 52.6313V51.9113H21.047V56.8613H20.107V56.0913H20.067C19.647 56.6913 19.0536 56.9947 18.287 57.0013C17.567 57.0147 16.967 56.7747 16.487 56.2813C16.0136 55.788 15.777 55.1547 15.777 54.3813C15.777 53.608 16.0136 52.978 16.487 52.4913C16.9603 52.0047 17.5636 51.7647 18.297 51.7713C19.057 51.778 19.647 52.0647 20.067 52.6313H20.107ZM18.427 56.0813C18.9203 56.0813 19.3203 55.918 19.627 55.5913C19.9403 55.2647 20.097 54.8613 20.097 54.3813C20.097 53.9013 19.9403 53.498 19.627 53.1713C19.3203 52.8447 18.9203 52.6813 18.427 52.6813C17.9203 52.6813 17.5103 52.8447 17.197 53.1713C16.8836 53.498 16.727 53.9013 16.727 54.3813C16.727 54.8613 16.8836 55.2647 17.197 55.5913C17.5103 55.918 17.9203 56.0813 18.427 56.0813ZM24.6637 51.7713C25.297 51.7713 25.807 51.978 26.1937 52.3913C26.5803 52.798 26.7737 53.3413 26.7737 54.0213V56.8613H25.8237V54.1913C25.8237 53.7513 25.7003 53.3913 25.4537 53.1113C25.2137 52.8313 24.8837 52.6913 24.4637 52.6913C24.0103 52.6913 23.6403 52.8513 23.3537 53.1713C23.0737 53.4847 22.9337 53.8913 22.9337 54.3913V56.8613H21.9837V51.9113H22.9137V52.5813H22.9537C23.3803 52.0413 23.9503 51.7713 24.6637 51.7713ZM30.277 51.7713C30.9103 51.7713 31.4203 51.978 31.807 52.3913C32.1936 52.798 32.387 53.3413 32.387 54.0213V56.8613H31.437V54.1913C31.437 53.7513 31.3136 53.3913 31.067 53.1113C30.827 52.8313 30.497 52.6913 30.077 52.6913C29.6236 52.6913 29.2536 52.8513 28.967 53.1713C28.687 53.4847 28.547 53.8913 28.547 54.3913V56.8613H27.597V51.9113H28.527V52.5813H28.567C28.9936 52.0413 29.5636 51.7713 30.277 51.7713ZM35.4502 51.7713C36.2569 51.7713 36.8969 52.0547 37.3702 52.6213C37.8502 53.188 38.0569 53.888 37.9902 54.7213H33.9002C33.9336 55.1147 34.1002 55.4413 34.4002 55.7013C34.7002 55.9613 35.0702 56.0913 35.5102 56.0913C35.8302 56.0913 36.1136 56.0213 36.3602 55.8813C36.6069 55.7413 36.7869 55.5547 36.9002 55.3213H37.8902C37.7236 55.8413 37.4236 56.2513 36.9902 56.5513C36.5569 56.8513 36.0502 57.0013 35.4702 57.0013C34.6969 57.0013 34.0736 56.7513 33.6002 56.2513C33.1269 55.7447 32.8902 55.1247 32.8902 54.3913C32.8902 53.6513 33.1302 53.0313 33.6102 52.5313C34.0902 52.0247 34.7036 51.7713 35.4502 51.7713ZM35.4302 52.6813C35.0436 52.6813 34.7136 52.7947 34.4402 53.0213C34.1669 53.2413 33.9936 53.528 33.9202 53.8813H36.9602C36.8869 53.5213 36.7102 53.2313 36.4302 53.0113C36.1569 52.7913 35.8236 52.6813 35.4302 52.6813ZM38.5098 55.5813V49.6613H39.4598V55.4513C39.4598 55.778 39.6265 55.9413 39.9598 55.9413H40.7598V56.8613H39.8198C39.3998 56.8613 39.0765 56.7513 38.8498 56.5313C38.6232 56.3047 38.5098 55.988 38.5098 55.5813Z" fill="#8950E7"/>
</svg>
