<svg width="43" height="59" viewBox="0 0 43 59" fill="none" xmlns="http://www.w3.org/2000/svg">
<path fill-rule="evenodd" clip-rule="evenodd" d="M0.554688 21.7911C0.554688 33.3945 9.9611 42.8009 21.5645 42.8009C33.1679 42.8009 42.5743 33.3945 42.5743 21.7911C42.5743 10.1877 33.1679 0.78125 21.5645 0.78125C9.9611 0.78125 0.554688 10.1877 0.554688 21.7911ZM17.7126 31.4207L18.07 26.0652L18.0697 26.0649L27.8121 17.2732C28.2396 16.8937 27.7187 16.7087 27.1511 17.0529L15.1277 24.6383L9.93427 23.0173C8.81271 22.6739 8.80466 21.9032 10.1861 21.3492L30.4238 13.5456C31.3481 13.126 32.2402 13.7676 31.8874 15.1823L28.4409 31.4234C28.2002 32.5775 27.5029 32.8535 26.5367 32.3204L21.2866 28.4416L18.763 30.8954C18.7551 30.9032 18.7472 30.9109 18.7393 30.9186C18.4571 31.1933 18.2235 31.4207 17.7126 31.4207Z" fill="white"/>
<path d="M14.3726 54.3113H15.4026C15.2426 55.098 14.8592 55.7413 14.2526 56.2413C13.6526 56.7413 12.9226 56.9913 12.0626 56.9913C11.0559 56.9913 10.2326 56.6547 9.59258 55.9813C8.95924 55.308 8.64258 54.4847 8.64258 53.5113C8.64258 52.5447 8.96258 51.7213 9.60258 51.0413C10.2426 50.3613 11.0626 50.0213 12.0626 50.0213C12.9026 50.0213 13.6226 50.268 14.2226 50.7613C14.8292 51.248 15.2159 51.878 15.3826 52.6513H14.3626C14.2159 52.158 13.9359 51.7547 13.5226 51.4413C13.1159 51.128 12.6359 50.9713 12.0826 50.9713C11.3692 50.9713 10.7792 51.2213 10.3126 51.7213C9.85258 52.2147 9.62258 52.8113 9.62258 53.5113C9.62258 54.218 9.85258 54.818 10.3126 55.3113C10.7792 55.798 11.3692 56.0413 12.0826 56.0413C12.6626 56.0413 13.1559 55.8813 13.5626 55.5613C13.9759 55.2347 14.2459 54.818 14.3726 54.3113ZM18.8281 51.7713C19.4615 51.7713 19.9715 51.978 20.3581 52.3913C20.7448 52.798 20.9381 53.3413 20.9381 54.0213V56.8613H19.9881V54.1913C19.9881 53.7513 19.8648 53.3913 19.6181 53.1113C19.3781 52.8313 19.0481 52.6913 18.6281 52.6913C18.1748 52.6913 17.8048 52.8513 17.5181 53.1713C17.2381 53.4847 17.0981 53.8913 17.0981 54.3913V56.8613H16.1481V49.6613H17.0981V52.5813H17.1381C17.5515 52.0413 18.1148 51.7713 18.8281 51.7713ZM25.8714 52.6313V51.9113H26.8114V56.8613H25.8714V56.0913H25.8314C25.4114 56.6913 24.8181 56.9947 24.0514 57.0013C23.3314 57.0147 22.7314 56.7747 22.2514 56.2813C21.7781 55.788 21.5414 55.1547 21.5414 54.3813C21.5414 53.608 21.7781 52.978 22.2514 52.4913C22.7247 52.0047 23.3281 51.7647 24.0614 51.7713C24.8214 51.778 25.4114 52.0647 25.8314 52.6313H25.8714ZM24.1914 56.0813C24.6847 56.0813 25.0847 55.918 25.3914 55.5913C25.7047 55.2647 25.8614 54.8613 25.8614 54.3813C25.8614 53.9013 25.7047 53.498 25.3914 53.1713C25.0847 52.8447 24.6847 52.6813 24.1914 52.6813C23.6847 52.6813 23.2747 52.8447 22.9614 53.1713C22.6481 53.498 22.4914 53.9013 22.4914 54.3813C22.4914 54.8613 22.6481 55.2647 22.9614 55.5913C23.2747 55.918 23.6847 56.0813 24.1914 56.0813ZM31.4681 51.9113V52.8313H29.2181V55.4413C29.2181 55.768 29.3848 55.9313 29.7181 55.9313H31.4681V56.8613H29.5281C29.1215 56.8613 28.8081 56.7547 28.5881 56.5413C28.3748 56.328 28.2681 56.0213 28.2681 55.6213V52.8313H27.3681V51.9113H28.2681V50.1613H29.2181V51.9113H31.4681Z" fill="white"/>
</svg>
