<svg width="43" height="43" viewBox="0 0 43 43" fill="none" xmlns="http://www.w3.org/2000/svg">
<path fill-rule="evenodd" clip-rule="evenodd" d="M21.7461 0.781708C10.1427 0.781708 0.736328 10.1881 0.736328 21.7915C0.736328 33.3949 10.1427 42.8013 21.7461 42.8013C33.3495 42.8013 42.756 33.3949 42.756 21.7915C42.756 10.1881 33.3495 0.781708 21.7461 0.781708ZM30.5016 14.5689C31.4659 14.8335 32.2253 15.6131 32.483 16.6032C32.9514 18.3977 32.9514 22.1418 32.9514 22.1418C32.9514 22.1418 32.9514 25.8857 32.483 27.6803C32.2253 28.6704 31.4659 29.45 30.5016 29.7148C28.7541 30.1955 21.7461 30.1955 21.7461 30.1955C21.7461 30.1955 14.7382 30.1955 12.9905 29.7148C12.0262 29.45 11.2668 28.6704 11.0091 27.6803C10.5409 25.8857 10.5409 22.1418 10.5409 22.1418C10.5409 22.1418 10.5409 18.3977 11.0091 16.6032C11.2668 15.6131 12.0262 14.8335 12.9905 14.5689C14.7382 14.088 21.7461 14.088 21.7461 14.088C21.7461 14.088 28.7541 14.088 30.5016 14.5689Z" fill="white"/>
<path d="M19.6455 25.9933V18.9901L25.2481 22.4918L19.6455 25.9933Z" fill="white"/>
</svg>
