<svg width="35" height="35" viewBox="0 0 35 35" fill="none" xmlns="http://www.w3.org/2000/svg">
<path fill-rule="evenodd" clip-rule="evenodd" d="M17.4122 0.000488281C7.79572 0.000488281 0 7.79621 0 17.4127C0 27.0292 7.79572 34.825 17.4122 34.825C27.0287 34.825 34.8245 27.0292 34.8245 17.4127C34.8245 7.79621 27.0287 0.000488281 17.4122 0.000488281ZM18.5077 15.3791L18.4659 14.6908C18.3407 12.907 19.4398 11.2777 21.1789 10.6456C21.8189 10.4209 22.9041 10.3928 23.6137 10.5894C23.892 10.6737 24.4206 10.9546 24.7963 11.2074L25.478 11.671L26.2293 11.4322C26.6467 11.3058 27.2032 11.0951 27.4537 10.9546C27.6902 10.8282 27.8989 10.758 27.8989 10.8001C27.8989 11.0389 27.3841 11.8536 26.9528 12.303C26.3685 12.9351 26.5354 12.9913 27.718 12.5699C28.4276 12.3311 28.4415 12.3311 28.3023 12.598C28.2189 12.7385 27.7876 13.2301 27.3284 13.6795C26.5493 14.4521 26.5076 14.5363 26.5076 15.1825C26.5076 16.1797 26.0345 18.2585 25.5615 19.3962C24.685 21.5312 22.8067 23.7364 20.9285 24.8461C18.285 26.4052 14.7651 26.7985 11.8016 25.8855C10.8138 25.5765 9.11643 24.7899 9.11643 24.6494C9.11643 24.6073 9.63121 24.5511 10.2573 24.5371C11.5651 24.509 12.8729 24.1438 13.986 23.4977L14.7373 23.0482L13.8747 22.7532C12.6503 22.3319 11.5512 21.3627 11.2729 20.4497C11.1895 20.1547 11.2173 20.1407 11.9964 20.1407L12.8034 20.1266L12.1216 19.8036C11.3147 19.3962 10.5773 18.708 10.2156 18.0057C9.95121 17.5 9.6173 16.2219 9.71469 16.1235C9.74251 16.0814 10.0347 16.1657 10.3686 16.278C11.3286 16.6292 11.4538 16.5449 10.8973 15.955C9.85382 14.8875 9.53382 13.3003 10.0347 11.7974L10.2712 11.1232L11.1895 12.0362C13.0677 13.8762 15.2799 14.9718 17.812 15.2948L18.5077 15.3791Z" fill="white"/>
</svg>
