<svg width="35" height="35" viewBox="0 0 35 35" fill="none" xmlns="http://www.w3.org/2000/svg">
<path fill-rule="evenodd" clip-rule="evenodd" d="M17.5875 0C7.97101 0 0.175293 7.79572 0.175293 17.4122C0.175293 27.0287 7.97101 34.8245 17.5875 34.8245C27.204 34.8245 34.9998 27.0287 34.9998 17.4122C34.9998 7.79572 27.204 0 17.5875 0ZM19.1853 23.4595C19.005 23.6496 18.653 23.688 18.653 23.688H17.4874C17.4874 23.688 14.9159 23.8397 12.6505 21.5251C10.18 19 7.9986 13.9899 7.9986 13.9899C7.9986 13.9899 7.87269 13.6612 8.00909 13.503C8.16266 13.3242 8.5814 13.3129 8.5814 13.3129L11.3676 13.2952C11.3676 13.2952 11.6299 13.3373 11.8178 13.4731C11.9733 13.5854 12.0601 13.7942 12.0601 13.7942C12.0601 13.7942 12.5103 14.9121 13.1064 15.9233C14.2711 17.898 14.8129 18.3296 15.2078 18.118C15.7839 17.8099 15.6112 15.3269 15.6112 15.3269C15.6112 15.3269 15.6217 14.4262 15.3213 14.0245C15.0885 13.7137 14.6498 13.6229 14.4561 13.5976C14.2987 13.577 14.5563 13.2193 14.8901 13.0592C15.3918 12.8186 16.277 12.8045 17.3234 12.8148C18.1389 12.8233 18.3736 12.8729 18.6921 12.9487C19.4315 13.1239 19.4085 13.6852 19.3586 14.8965C19.3437 15.2588 19.3265 15.6792 19.3265 16.1649C19.3265 16.274 19.3232 16.3903 19.3199 16.51C19.3026 17.1306 19.2828 17.8413 19.6994 18.1058C19.9131 18.2406 20.4348 18.1255 21.7406 15.9495C22.3597 14.9177 22.8232 13.7052 22.8232 13.7052C22.8232 13.7052 22.9253 13.489 23.0827 13.3963C23.2439 13.3017 23.4614 13.3307 23.4614 13.3307L26.3935 13.3129C26.3935 13.3129 27.2748 13.209 27.417 13.6004C27.5667 14.0095 27.0879 14.9664 25.8899 16.5338C24.7534 18.021 24.2004 18.5685 24.2512 19.0528C24.2882 19.4066 24.6477 19.7267 25.3376 20.3548C26.7777 21.6672 27.1637 22.3577 27.2564 22.5236C27.2641 22.5374 27.2698 22.5475 27.2739 22.5541C27.9196 23.6056 26.5575 23.688 26.5575 23.688L23.9526 23.7236C23.9526 23.7236 23.3936 23.8322 22.6573 23.3359C22.2715 23.0762 21.8946 22.652 21.5356 22.248C20.9873 21.6309 20.4808 21.0609 20.0485 21.1956C19.3226 21.4222 19.3446 22.9567 19.3446 22.9567C19.3446 22.9567 19.3503 23.2854 19.1853 23.4595Z" fill="white"/>
</svg>
